<svg xmlns="http://www.w3.org/2000/svg" width="18" height="18" viewBox="0 0 18 18">
    <g fill="none" fill-rule="evenodd">
        <path stroke="#434A54" stroke-linecap="round" stroke-linejoin="round" stroke-width=".4" d="M11.278 6.08c.523 4.882.875 7.323 1.055 7.323l-7.009-.023c-.788 0-1.401-.672-1.316-1.442l.65-5.858h6.62z"/>
        <path fill="#434A54" fill-rule="nonzero" d="M9.984 7.134a.176.176 0 0 1-.173-.18v-1.85c0-.462-.183-.898-.517-1.227a1.79 1.79 0 0 0-1.267-.517c-.984 0-1.785.783-1.785 1.744v1.85a.176.176 0 0 1-.172.18.176.176 0 0 1-.173-.18v-1.85c0-1.159.956-2.101 2.13-2.101a2.128 2.128 0 0 1 1.505.615c.402.397.624.925.624 1.486v1.85a.176.176 0 0 1-.172.18z"/>
        <path fill="#4DDFD2" stroke="#434A54" stroke-linecap="round" stroke-linejoin="round" stroke-width=".4" d="M13.917 12.817l-.077-.107a.344.344 0 0 1-.003-.395l.075-.108a.342.342 0 0 0-.115-.494l-.114-.062a.34.34 0 0 1-.17-.354l.022-.131a.336.336 0 0 0-.313-.394l-.13-.005a.333.333 0 0 1-.304-.243l-.037-.128a.329.329 0 0 0-.449-.216l-.12.052a.325.325 0 0 1-.376-.085l-.087-.099a.326.326 0 0 0-.496.004l-.085.1a.327.327 0 0 1-.376.09l-.121-.05a.33.33 0 0 0-.446.223l-.034.129a.33.33 0 0 1-.3.248l-.13.007a.336.336 0 0 0-.307.399l.024.13a.34.34 0 0 1-.164.357l-.114.065a.341.341 0 0 0-.106.494l.077.108a.344.344 0 0 1 .003.394l-.075.109a.342.342 0 0 0 .115.493l.114.063a.34.34 0 0 1 .17.354l-.022.13c-.033.2.114.386.313.394l.13.005a.333.333 0 0 1 .304.244l.037.127a.329.329 0 0 0 .449.216l.12-.052a.325.325 0 0 1 .376.085l.087.1c.133.15.365.15.496-.005l.085-.1a.327.327 0 0 1 .376-.09l.121.05a.33.33 0 0 0 .446-.223l.034-.128a.33.33 0 0 1 .3-.248l.13-.008a.336.336 0 0 0 .307-.398l-.024-.131a.34.34 0 0 1 .164-.356l.114-.065a.341.341 0 0 0 .106-.495z"/>
        <path fill="#434A54" d="M10.24 12.103c0-.24.187-.434.417-.434.23 0 .417.194.417.434s-.187.433-.417.433a.425.425 0 0 1-.417-.433zM12.324 13.403a.425.425 0 0 1-.417-.434c0-.24.186-.433.417-.433.23 0 .416.194.416.433 0 .24-.186.434-.416.434z"/>
        <path stroke="#434A54" stroke-linecap="round" stroke-linejoin="round" stroke-width=".3" d="M10.788 13.403l1.405-1.734"/>
    </g>
</svg>
